<svg width="105" height="59" viewBox="0 0 105 59" fill="none" xmlns="http://www.w3.org/2000/svg">
<path d="M80.0006 22L75.9982 27.3336L72 22.0056L71 23.3384L75.9988 30L81 23.3336L80.0006 22Z" fill="black"/>
<path d="M20.6719 29.9297C19.3854 29.5599 18.4479 29.1068 17.8594 28.5703C17.276 28.0286 16.9844 27.362 16.9844 26.5703C16.9844 25.6745 17.3411 24.9349 18.0547 24.3516C18.7734 23.763 19.7057 23.4688 20.8516 23.4688C21.6328 23.4688 22.3281 23.6198 22.9375 23.9219C23.5521 24.224 24.026 24.6406 24.3594 25.1719C24.6979 25.7031 24.8672 26.2839 24.8672 26.9141H23.3594C23.3594 26.2266 23.1406 25.6875 22.7031 25.2969C22.2656 24.901 21.6484 24.7031 20.8516 24.7031C20.112 24.7031 19.5339 24.8672 19.1172 25.1953C18.7057 25.5182 18.5 25.9688 18.5 26.5469C18.5 27.0104 18.6953 27.4036 19.0859 27.7266C19.4818 28.0443 20.151 28.3359 21.0938 28.6016C22.0417 28.8672 22.7812 29.1615 23.3125 29.4844C23.849 29.8021 24.2448 30.1745 24.5 30.6016C24.7604 31.0286 24.8906 31.5312 24.8906 32.1094C24.8906 33.0312 24.5312 33.7708 23.8125 34.3281C23.0938 34.8802 22.1328 35.1562 20.9297 35.1562C20.1484 35.1562 19.4193 35.0078 18.7422 34.7109C18.0651 34.4089 17.5417 33.9974 17.1719 33.4766C16.8073 32.9557 16.625 32.3646 16.625 31.7031H18.1328C18.1328 32.3906 18.3854 32.9349 18.8906 33.3359C19.401 33.7318 20.0807 33.9297 20.9297 33.9297C21.7214 33.9297 22.3281 33.7682 22.75 33.4453C23.1719 33.1224 23.3828 32.6823 23.3828 32.125C23.3828 31.5677 23.1875 31.138 22.7969 30.8359C22.4062 30.5286 21.6979 30.2266 20.6719 29.9297ZM37.1375 35H35.6297V29.7422H29.8953V35H28.3953V23.625H29.8953V28.5156H35.6297V23.625H37.1375V35ZM50.1266 29.6797C50.1266 30.7943 49.9391 31.7682 49.5641 32.6016C49.1891 33.4297 48.6578 34.0625 47.9703 34.5C47.2828 34.9375 46.4807 35.1562 45.5641 35.1562C44.6682 35.1562 43.874 34.9375 43.1812 34.5C42.4885 34.0573 41.9495 33.4297 41.5641 32.6172C41.1839 31.7995 40.9885 30.8542 40.9781 29.7812V28.9609C40.9781 27.8672 41.1682 26.901 41.5484 26.0625C41.9286 25.224 42.4651 24.5833 43.1578 24.1406C43.8557 23.6927 44.6526 23.4688 45.5484 23.4688C46.4599 23.4688 47.262 23.6901 47.9547 24.1328C48.6526 24.5703 49.1891 25.2083 49.5641 26.0469C49.9391 26.8802 50.1266 27.8516 50.1266 28.9609V29.6797ZM48.6344 28.9453C48.6344 27.5964 48.3635 26.5625 47.8219 25.8438C47.2802 25.1198 46.5224 24.7578 45.5484 24.7578C44.6005 24.7578 43.8531 25.1198 43.3062 25.8438C42.7646 26.5625 42.4859 27.5625 42.4703 28.8438V29.6797C42.4703 30.987 42.7437 32.0156 43.2906 32.7656C43.8427 33.5104 44.6005 33.8828 45.5641 33.8828C46.5328 33.8828 47.2828 33.5312 47.8141 32.8281C48.3453 32.1198 48.6187 31.1068 48.6344 29.7891V28.9453ZM55.4516 30.5469V35H53.9516V23.625H58.1469C59.3917 23.625 60.3656 23.9427 61.0687 24.5781C61.7771 25.2135 62.1312 26.0547 62.1312 27.1016C62.1312 28.2057 61.7849 29.0573 61.0922 29.6562C60.4047 30.25 59.4177 30.5469 58.1312 30.5469H55.4516ZM55.4516 29.3203H58.1469C58.949 29.3203 59.5635 29.1328 59.9906 28.7578C60.4177 28.3776 60.6312 27.8307 60.6312 27.1172C60.6312 26.4401 60.4177 25.8984 59.9906 25.4922C59.5635 25.0859 58.9776 24.875 58.2328 24.8594H55.4516V29.3203Z" fill="#56593D"/>
</svg>
