<svg width="131" height="59" viewBox="0 0 131 59" fill="none" xmlns="http://www.w3.org/2000/svg">
<path d="M106.001 22L101.998 27.3336L98 22.0056L97 23.3384L101.999 30L107 23.3336L106.001 22Z" fill="black"/>
<path d="M21.6719 29.9297C20.3854 29.5599 19.4479 29.1068 18.8594 28.5703C18.276 28.0286 17.9844 27.362 17.9844 26.5703C17.9844 25.6745 18.3411 24.9349 19.0547 24.3516C19.7734 23.763 20.7057 23.4688 21.8516 23.4688C22.6328 23.4688 23.3281 23.6198 23.9375 23.9219C24.5521 24.224 25.026 24.6406 25.3594 25.1719C25.6979 25.7031 25.8672 26.2839 25.8672 26.9141H24.3594C24.3594 26.2266 24.1406 25.6875 23.7031 25.2969C23.2656 24.901 22.6484 24.7031 21.8516 24.7031C21.112 24.7031 20.5339 24.8672 20.1172 25.1953C19.7057 25.5182 19.5 25.9688 19.5 26.5469C19.5 27.0104 19.6953 27.4036 20.0859 27.7266C20.4818 28.0443 21.151 28.3359 22.0938 28.6016C23.0417 28.8672 23.7812 29.1615 24.3125 29.4844C24.849 29.8021 25.2448 30.1745 25.5 30.6016C25.7604 31.0286 25.8906 31.5312 25.8906 32.1094C25.8906 33.0312 25.5312 33.7708 24.8125 34.3281C24.0938 34.8802 23.1328 35.1562 21.9297 35.1562C21.1484 35.1562 20.4193 35.0078 19.7422 34.7109C19.0651 34.4089 18.5417 33.9974 18.1719 33.4766C17.8073 32.9557 17.625 32.3646 17.625 31.7031H19.1328C19.1328 32.3906 19.3854 32.9349 19.8906 33.3359C20.401 33.7318 21.0807 33.9297 21.9297 33.9297C22.7214 33.9297 23.3281 33.7682 23.75 33.4453C24.1719 33.1224 24.3828 32.6823 24.3828 32.125C24.3828 31.5677 24.1875 31.138 23.7969 30.8359C23.4062 30.5286 22.6979 30.2266 21.6719 29.9297ZM37.2547 24.8594H33.5984V35H32.1062V24.8594H28.4578V23.625H37.2547V24.8594ZM49.0484 29.6797C49.0484 30.7943 48.8609 31.7682 48.4859 32.6016C48.1109 33.4297 47.5797 34.0625 46.8922 34.5C46.2047 34.9375 45.4026 35.1562 44.4859 35.1562C43.5901 35.1562 42.7958 34.9375 42.1031 34.5C41.4104 34.0573 40.8714 33.4297 40.4859 32.6172C40.1057 31.7995 39.9104 30.8542 39.9 29.7812V28.9609C39.9 27.8672 40.0901 26.901 40.4703 26.0625C40.8505 25.224 41.387 24.5833 42.0797 24.1406C42.7776 23.6927 43.5745 23.4688 44.4703 23.4688C45.3818 23.4688 46.1839 23.6901 46.8766 24.1328C47.5745 24.5703 48.1109 25.2083 48.4859 26.0469C48.8609 26.8802 49.0484 27.8516 49.0484 28.9609V29.6797ZM47.5562 28.9453C47.5562 27.5964 47.2854 26.5625 46.7437 25.8438C46.2021 25.1198 45.4443 24.7578 44.4703 24.7578C43.5224 24.7578 42.775 25.1198 42.2281 25.8438C41.6865 26.5625 41.4078 27.5625 41.3922 28.8438V29.6797C41.3922 30.987 41.6656 32.0156 42.2125 32.7656C42.7646 33.5104 43.5224 33.8828 44.4859 33.8828C45.4547 33.8828 46.2047 33.5312 46.7359 32.8281C47.2672 32.1198 47.5406 31.1068 47.5562 29.7891V28.9453ZM57.0453 30.3984H54.3734V35H52.8656V23.625H56.6312C57.9125 23.625 58.8969 23.9167 59.5844 24.5C60.2771 25.0833 60.6234 25.9323 60.6234 27.0469C60.6234 27.7552 60.4307 28.3724 60.0453 28.8984C59.6651 29.4245 59.1339 29.8177 58.4516 30.0781L61.1234 34.9062V35H59.5141L57.0453 30.3984ZM54.3734 29.1719H56.6781C57.4229 29.1719 58.0141 28.9792 58.4516 28.5938C58.8943 28.2083 59.1156 27.6927 59.1156 27.0469C59.1156 26.3438 58.9047 25.8047 58.4828 25.4297C58.0661 25.0547 57.462 24.8646 56.6703 24.8594H54.3734V29.1719ZM65.9172 35H64.4172V23.625H65.9172V35ZM76.6719 29.7422H71.7422V33.7734H77.4688V35H70.2422V23.625H77.3906V24.8594H71.7422V28.5156H76.6719V29.7422ZM84.2625 29.9297C82.976 29.5599 82.0385 29.1068 81.45 28.5703C80.8667 28.0286 80.575 27.362 80.575 26.5703C80.575 25.6745 80.9318 24.9349 81.6453 24.3516C82.3641 23.763 83.2964 23.4688 84.4422 23.4688C85.2234 23.4688 85.9188 23.6198 86.5281 23.9219C87.1427 24.224 87.6167 24.6406 87.95 25.1719C88.2885 25.7031 88.4578 26.2839 88.4578 26.9141H86.95C86.95 26.2266 86.7313 25.6875 86.2938 25.2969C85.8563 24.901 85.2391 24.7031 84.4422 24.7031C83.7026 24.7031 83.1245 24.8672 82.7078 25.1953C82.2964 25.5182 82.0906 25.9688 82.0906 26.5469C82.0906 27.0104 82.2859 27.4036 82.6766 27.7266C83.0724 28.0443 83.7417 28.3359 84.6844 28.6016C85.6323 28.8672 86.3719 29.1615 86.9031 29.4844C87.4396 29.8021 87.8354 30.1745 88.0906 30.6016C88.351 31.0286 88.4813 31.5312 88.4813 32.1094C88.4813 33.0312 88.1219 33.7708 87.4031 34.3281C86.6844 34.8802 85.7234 35.1562 84.5203 35.1562C83.7391 35.1562 83.0099 35.0078 82.3328 34.7109C81.6557 34.4089 81.1323 33.9974 80.7625 33.4766C80.3979 32.9557 80.2156 32.3646 80.2156 31.7031H81.7234C81.7234 32.3906 81.976 32.9349 82.4813 33.3359C82.9917 33.7318 83.6714 33.9297 84.5203 33.9297C85.312 33.9297 85.9188 33.7682 86.3406 33.4453C86.7625 33.1224 86.9734 32.6823 86.9734 32.125C86.9734 31.5677 86.7781 31.138 86.3875 30.8359C85.9969 30.5286 85.2885 30.2266 84.2625 29.9297Z" fill="#56593D"/>
</svg>
